<svg xmlns="http://www.w3.org/2000/svg" width="200" height="200"><title>instagram</title><g><path fill="#fff" d="m162.996109 0l-125.992214 0c-19.484974 0 -35.3 15.8 -35.3 35.267399l0 129.075054c0 19.5 15.8 35.3 35.3 35.267395l125.992214 0c19.442307 0 35.3 -15.8 35.3 -35.267395l0 -129.075054c0 -19.5 -15.8 -35.3 -35.3 -35.267399zm-100.905144 88.079811c4.980148 -16.2 20.1 -27.9 37.9 -27.947605s32.930016 11.8 37.9 27.947605c1.145142 3.7 1.8 7.6 1.8 11.727386c0 21.9 -17.8 39.7 -39.7 39.67498s-39.67498 -17.8 -39.7 -39.67498c-0.00227 -4.1 0.6 -8 1.8 -11.727386l0.000019 0zm114.132408 78.602257c0 4.8 -4 8.8 -8.8 8.817398l-134.807396 0c-4.892574 0 -8.8 -4 -8.8 -8.817398l0 -78.602257l13.402376 0c-0.747696 3.8 -1.1 7.7 -1.1 11.727333c0 35.3 28.6 63.9 63.9 63.922287c35.267403 0 63.9 -28.6 63.9 -63.922287c0 -4 -0.4 -7.9 -1.1 -11.727333l13.402359 0l0 78.602257l-0.002228 0l0.000031 0zm0 -109.462078c0 4.8 -4 8.8 -8.8 8.81741l-23.537796 0c-4.847672 0 -8.8 -4 -8.8 -8.81741l0 -22.042404c0 -4.9 4 -8.8 8.8 -8.817411l23.537796 0c4.847656 0 8.8 3.9 8.8 8.817411l0 22.042404z"/></g></svg>
