<?xml version="1.0" encoding="UTF-8" standalone="no"?>
<svg width="512px" height="512px" viewBox="0 0 512 512" version="1.1" xmlns="http://www.w3.org/2000/svg" xmlns:xlink="http://www.w3.org/1999/xlink" xmlns:sketch="http://www.bohemiancoding.com/sketch/ns">
    <title>instagram</title>
    <description>Created with Sketch (http://www.bohemiancoding.com/sketch)</description>
    <defs></defs>
    <g id="Page-1" stroke="none" stroke-width="1" fill="none" fill-rule="evenodd" sketch:type="MSPage">
        <path d="M154,130.517395 C138.813329,136.190279 128,150.82695 128,168 L128,344 C128,366.09139 145.899674,384 168,384 L344,384 C366.09139,384 384,366.100326 384,344 L384,168 C384,145.90861 366.100326,128 344,128 L178,128 L178,165.003468 C178,166.662621 176.660843,168 175.00891,168 L156.99109,168 C155.341771,168 154,166.658407 154,165.003468 L154,130.517395 Z M165.823342,226.032258 L128,226.032258 L128,193 L184.893017,193 C202.296773,173.371224 227.703659,161 256,161 C284.296341,161 309.703227,173.371224 327.106983,193 L384,193 L384,226.032258 L346.176658,226.032258 C349.305837,235.453047 351,245.528677 351,256 C351,308.467054 308.467054,351 256,351 C203.532946,351 161,308.467054 161,256 C161,245.528677 162.694163,235.453047 165.823342,226.032258 L165.823342,226.032258 Z M338.323624,144.516129 C335.009339,144.516129 332.322581,147.205292 332.322581,150.517173 L332.322581,171.547344 C332.322581,174.861628 335.011743,177.548387 338.323624,177.548387 L359.353795,177.548387 C362.66808,177.548387 365.354839,174.859224 365.354839,171.547344 L365.354839,150.517173 C365.354839,147.202888 362.665676,144.516129 359.353795,144.516129 L338.323624,144.516129 Z M256,322 C292.450795,322 322,292.450795 322,256 C322,219.549205 292.450795,190 256,190 C219.549205,190 190,219.549205 190,256 C190,292.450795 219.549205,322 256,322 Z M255.992,0 C114.611582,0 0,114.624 0,256 C0,397.456 114.611582,512 255.992,512 C397.45242,512 512,397.456 512,256 C512,114.656 397.340417,0 255.992,0 L255.992,0 Z" id="instagram" fill="#000000" sketch:type="MSShapeGroup"></path>
    </g>
</svg>